<?xml version="1.0" encoding="UTF-8" standalone="no"?>
<svg
   width="128"
   height="128"
   viewBox="0 0 128 128"
   fill="none"
   version="1.1"
   id="svg11"
   sodipodi:docname="logo.svg"
   inkscape:version="1.2.1 (9c6d41e410, 2022-07-14, custom)"
   xmlns:inkscape="http://www.inkscape.org/namespaces/inkscape"
   xmlns:sodipodi="http://sodipodi.sourceforge.net/DTD/sodipodi-0.dtd"
   xmlns="http://www.w3.org/2000/svg"
   xmlns:svg="http://www.w3.org/2000/svg">
  <sodipodi:namedview
     id="namedview13"
     pagecolor="#ffffff"
     bordercolor="#666666"
     borderopacity="1.0"
     inkscape:showpageshadow="2"
     inkscape:pageopacity="0.0"
     inkscape:pagecheckerboard="0"
     inkscape:deskcolor="#d1d1d1"
     showgrid="false"
     showguides="false"
     inkscape:zoom="2.3398438"
     inkscape:cx="21.368948"
     inkscape:cy="38.677796"
     inkscape:window-width="1366"
     inkscape:window-height="742"
     inkscape:window-x="0"
     inkscape:window-y="0"
     inkscape:window-maximized="1"
     inkscape:current-layer="svg11">
    <sodipodi:guide
       position="-38.606378,114.55199"
       orientation="1,0"
       id="guide242"
       inkscape:locked="false" />
  </sodipodi:namedview>
  <defs
     id="defs9">
    <linearGradient
       id="paint0_linear"
       x1="8"
       y1="14"
       x2="8"
       y2="2"
       gradientUnits="userSpaceOnUse"
       gradientTransform="matrix(10.666667,0,0,10.666667,-21.333333,-21.333333)">
      <stop
         stop-color="#5558FF"
         id="stop4" />
      <stop
         offset="1"
         stop-color="#00C0FF"
         id="stop6" />
    </linearGradient>
    <linearGradient
       id="paint0_linear-3"
       x1="8"
       y1="14"
       x2="8"
       y2="2"
       gradientUnits="userSpaceOnUse"
       gradientTransform="matrix(10,0,0,10,-16,-16)">
      <stop
         stop-color="#5558FF"
         id="stop4-6"
         offset="0"
         style="stop-color:#cc3dff;stop-opacity:1;" />
      <stop
         offset="1"
         stop-color="#00C0FF"
         id="stop6-7"
         style="stop-color:#3ba4ff;stop-opacity:1;" />
    </linearGradient>
  </defs>
  <path
     d="M 34,4 C 28.4772,4 24,8.4772 24,14 24,19.5228 28.4772,24 34,24 39.5228,24 44,19.5228 44,14 44,8.4772 39.5228,4 34,4 Z M 84,4 74,14 104,44 74,74 84,84 124,44 Z M 19,44 C 10.7157,44 4,50.7157 4,59 4,67.2843 10.7157,74 19,74 27.2843,74 34,67.2843 34,59 34,50.7157 27.2843,44 19,44 Z m 30,50 c -8.2843,0 -15,6.716 -15,15 0,8.284 6.7157,15 15,15 8.2843,0 15,-6.716 15,-15 0,-8.284 -6.7157,-15 -15,-15 z"
     fill="#D8DEE9"
     id="path2" />
</svg>
